<svg width="15" height="16" viewBox="0 0 15 16" fill="none" xmlns="http://www.w3.org/2000/svg">
<path d="M8.12329 8.07015L14.3661 1.20046C14.4219 1.139 14.4662 1.06604 14.4964 0.985746C14.5267 0.905448 14.5422 0.819385 14.5422 0.732472C14.5422 0.645559 14.5267 0.559497 14.4964 0.4792C14.4662 0.398902 14.4219 0.325943 14.3661 0.264486C14.3102 0.203029 14.2439 0.154278 14.1709 0.121018C14.098 0.087758 14.0198 0.0706394 13.9408 0.0706394C13.8618 0.0706394 13.7836 0.087758 13.7106 0.121018C13.6377 0.154278 13.5714 0.203029 13.5155 0.264486L7.27273 7.06354L1.02995 0.193846C0.974105 0.132389 0.907804 0.083639 0.834834 0.0503788C0.761865 0.0171186 0.683657 6.47554e-10 0.604675 0C0.525693 -6.47554e-10 0.447485 0.0171186 0.374516 0.0503788C0.301546 0.083639 0.235244 0.132389 0.179395 0.193846C0.123547 0.255303 0.0792463 0.328263 0.0490213 0.40856C0.0187964 0.488858 0.00323926 0.57492 0.00323926 0.661833C0.00323926 0.748746 0.0187964 0.834809 0.0490213 0.915106C0.0792463 0.995403 0.123547 1.06836 0.179395 1.12982L6.42217 8.07015L0.179395 14.8692C0.122619 14.9301 0.0774949 15.0029 0.0466843 15.0832C0.0158736 15.1636 0 15.25 0 15.3372C0 15.4244 0.0158736 15.5108 0.0466843 15.5912C0.0774949 15.6715 0.122619 15.7443 0.179395 15.8052C0.232242 15.8686 0.296846 15.9187 0.368835 15.9522C0.440823 15.9857 0.518515 16.0018 0.596651 15.9994C0.677192 16.0021 0.757349 15.9862 0.831972 15.9527C0.906595 15.9193 0.974033 15.869 1.02995 15.8052L7.27273 8.93548L13.5155 15.8052C13.5683 15.8686 13.633 15.9187 13.7049 15.9522C13.7769 15.9857 13.8546 16.0018 13.9328 15.9994C14.0134 16.0032 14.0939 15.9878 14.1687 15.9543C14.2434 15.9208 14.3108 15.8699 14.3661 15.8052C14.4228 15.7443 14.468 15.6715 14.4988 15.5912C14.5296 15.5108 14.5455 15.4244 14.5455 15.3372C14.5455 15.25 14.5296 15.1636 14.4988 15.0832C14.468 15.0029 14.4228 14.9301 14.3661 14.8692L8.12329 8.07015Z" fill="white"/>
</svg>
