<svg width="28" height="28" viewBox="0 0 28 28" fill="none" xmlns="http://www.w3.org/2000/svg">
<path d="M6.69189 1.96875C4.09429 1.96875 1.96875 4.09429 1.96875 6.69189V21.3089C1.96875 23.9065 4.09429 26.032 6.69189 26.032H21.3089C23.9065 26.032 26.032 23.9065 26.032 21.3089V6.69189C26.032 4.09429 23.9065 1.96875 21.3089 1.96875H6.69189ZM6.69189 4.15708H21.3089C22.7325 4.15708 23.8441 5.2683 23.8441 6.69189V21.3089C23.8441 22.7325 22.7325 23.8441 21.3089 23.8441H6.69189C5.2683 23.8441 4.15708 22.7325 4.15708 21.3089V6.69189C4.15708 5.2683 5.2683 4.15708 6.69189 4.15708ZM21.1389 6.47446C20.8898 6.47254 20.6475 6.55573 20.452 6.71027C20.2245 6.89018 20.0778 7.1531 20.0441 7.4412C20.0104 7.7293 20.0926 8.01897 20.2725 8.24651C20.4524 8.474 20.7153 8.6207 21.0034 8.65434C21.2915 8.68798 21.5812 8.6058 21.8087 8.42588C22.0362 8.24594 22.1829 7.983 22.2165 7.69491C22.2502 7.40681 22.168 7.11715 21.9881 6.88964C21.8866 6.76133 21.7576 6.65743 21.6107 6.58558C21.4637 6.51373 21.3025 6.47575 21.1389 6.47446ZM13.9455 7.38138C10.2421 7.38138 7.21688 10.4071 7.21688 14.1104C7.21688 17.8138 10.2421 20.839 13.9455 20.839C17.6488 20.839 20.6741 17.8138 20.6741 14.1104C20.6741 10.4071 17.6488 7.38138 13.9455 7.38138ZM13.9455 9.56795C14.5425 9.5659 15.134 9.682 15.686 9.90958C16.2379 10.1372 16.7394 10.4717 17.1614 10.8939C17.5835 11.3162 17.9179 11.8178 18.1452 12.3698C18.3726 12.9218 18.4885 13.5134 18.4862 14.1104C18.4884 14.7073 18.3725 15.2988 18.1451 15.8507C17.9177 16.4027 17.5834 16.9041 17.1613 17.3262C16.7392 17.7483 16.2377 18.0827 15.6858 18.3101C15.1339 18.5375 14.5424 18.6534 13.9455 18.6511C13.3485 18.6534 12.7571 18.5375 12.2052 18.3101C11.6532 18.0827 11.1518 17.7483 10.7297 17.3262C10.3076 16.9041 9.97321 16.4027 9.74581 15.8507C9.51842 15.2988 9.40251 14.7073 9.40477 14.1104C9.40248 13.5134 9.51836 12.9218 9.74572 12.3698C9.97308 11.8178 10.3074 11.3162 10.7295 10.8939C11.1516 10.4717 11.653 10.1372 12.205 9.90958C12.7569 9.682 13.3485 9.5659 13.9455 9.56795Z" fill="white"/>
</svg>
