<svg width="28" height="28" viewBox="0 0 28 28" fill="none" xmlns="http://www.w3.org/2000/svg">
<path d="M19.3667 16.3334C19.1333 16.2167 17.6167 15.5167 17.3833 15.4C17.15 15.2834 16.9167 15.2834 16.6833 15.5167C16.45 15.75 15.9833 16.45 15.75 16.6834C15.6333 16.9167 15.4 16.9167 15.1667 16.8C14.35 16.45 13.5333 15.9834 12.8333 15.4C12.25 14.8167 11.6667 14.1167 11.2 13.4167C11.0833 13.1834 11.2 12.95 11.3167 12.8334C11.4333 12.7167 11.55 12.4834 11.7833 12.3667C11.9 12.25 12.0167 12.0167 12.0167 11.9C12.1333 11.7834 12.1333 11.55 12.0167 11.4334C11.9 11.3167 11.3167 9.9167 11.0833 9.33337C10.9667 8.5167 10.7333 8.5167 10.5 8.5167H9.91668C9.68334 8.5167 9.33334 8.75003 9.21668 8.8667C8.51668 9.5667 8.16668 10.3834 8.16668 11.3167C8.28334 12.3667 8.63334 13.4167 9.33334 14.35C10.6167 16.2167 12.25 17.7334 14.2333 18.6667C14.8167 18.9 15.2833 19.1334 15.8667 19.25C16.45 19.4834 17.0333 19.4834 17.7333 19.3667C18.55 19.25 19.25 18.6667 19.7167 17.9667C19.95 17.5 19.95 17.0334 19.8333 16.5667L19.3667 16.3334ZM22.2833 5.7167C17.7333 1.1667 10.3833 1.1667 5.83334 5.7167C2.10001 9.45003 1.40001 15.1667 3.96668 19.7167L2.33334 25.6667L8.51668 24.0334C10.2667 24.9667 12.1333 25.4334 14 25.4334C20.4167 25.4334 25.55 20.3 25.55 13.8834C25.6667 10.85 24.3833 7.93337 22.2833 5.7167ZM19.1333 22.05C17.6167 22.9834 15.8667 23.5667 14 23.5667C12.25 23.5667 10.6167 23.1 9.10001 22.2834L8.75001 22.05L5.13334 22.9834L6.06668 19.4834L5.83334 19.1334C3.03334 14.4667 4.43334 8.63337 8.98334 5.7167C13.5333 2.80003 19.3667 4.3167 22.1667 8.75003C24.9667 13.3 23.6833 19.25 19.1333 22.05Z" fill="white"/>
</svg>
